<?xml version="1.0" standalone="no"?>
<!DOCTYPE svg PUBLIC "-//W3C//DTD SVG 20010904//EN"
 "http://www.w3.org/TR/2001/REC-SVG-20010904/DTD/svg10.dtd">
<svg version="1.0" xmlns="http://www.w3.org/2000/svg"
 width="260.000000pt" height="260.000000pt" viewBox="0 0 260.000000 260.000000"
 preserveAspectRatio="xMidYMid meet">
<metadata>
Created by potrace 1.14, written by Peter Selinger 2001-2017
</metadata>
<g transform="translate(0.000000,260.000000) scale(0.100000,-0.100000)"
fill="#000000" stroke="none">
<path d="M1633 2257 c-23 -10 -41 -55 -325 -777 -37 -96 -72 -184 -77 -195 -5
-11 -24 -58 -41 -105 -18 -47 -36 -94 -41 -105 -36 -86 -262 -664 -265 -680
-9 -45 30 -80 75 -68 20 5 61 68 61 91 0 5 10 31 22 58 12 27 23 51 23 54 1 3
5 14 10 25 23 61 200 510 301 765 64 162 141 358 171 435 30 77 82 208 114
291 62 156 67 194 31 210 -27 12 -36 12 -59 1z"/>
<path d="M701 2013 c-25 -10 -701 -694 -701 -710 0 -8 5 -24 12 -36 6 -12 164
-174 350 -361 315 -315 340 -338 366 -332 32 8 52 32 52 63 0 16 -87 110 -316
339 l-316 316 49 50 c26 27 168 170 316 317 275 276 287 292 255 333 -15 19
-47 29 -67 21z"/>
<path d="M1860 2013 c-8 -3 -21 -12 -27 -21 -33 -41 -22 -56 270 -348 155
-155 297 -298 315 -317 l34 -35 -316 -316 c-228 -229 -316 -323 -316 -340 0
-31 20 -54 53 -62 26 -6 50 16 378 346 328 328 351 354 345 380 -8 42 -691
726 -718 719 -2 0 -10 -3 -18 -6z"/>
</g>
</svg>
